# xmcd
#
# Track frame offsets:
#	150
#	11745
#	23976
#	34210
#	47010
#	59475
#	71697
#	84156
#	93390
#	104455
#	116820
#	128343
#	137995
#	148595
#	159720
#	172590
#	183740
#	194717
#	206010
#	218175
#
# Disc length: 3028 seconds
#
# Revision: 0
# Processed by: cddbd v1.5.2PL0 Copyright (c) Steve Scherf et al.
# Submitted via: dBpowerAMP V4.0
#
DISCID=280bd214
DTITLE=Jim Reeves - The Legend Of Jim Reeves
DYEAR=2006
DGENRE=Country
TTITLE0=Yonder Comes A Sucker
TTITLE1=Mexican Joe
TTITLE2=He'll Have To Go
TTITLE3=Bimbo
TTITLE4=Drinking Tequila
TTITLE5=How Many
TTITLE6=Four Walls
TTITLE7=Billy Bayou
TTITLE8=I'm Hurtin' Inside
TTITLE9=I've Lived A Lot In My Time
TTITLE10=Jimbo Jenkins
TTITLE11=I'm Getting Better
TTITLE12=My Rambling Heart
TTITLE13=Then I'll Stop Loving
TTITLE14=Butterfly Love
TTITLE15=Tahiti
TTITLE16=Where Does A Broken Heart Go
TTITLE17=Am I Losing
TTITLE18=I'll Follow You
TTITLE19=According To My Heart
EXTD=
EXTT0=
EXTT1=
EXTT2=
EXTT3=
EXTT4=
EXTT5=
EXTT6=
EXTT7=
EXTT8=
EXTT9=
EXTT10=
EXTT11=
EXTT12=
EXTT13=
EXTT14=
EXTT15=
EXTT16=
EXTT17=
EXTT18=
EXTT19=
PLAYORDER=
